# xmcd
#
# Track frame offsets: 
#        150
#        22364
#        58603
#        75525
#        101665
#        132287
#        159630
#        180739
#        204433
#        228392
#        259172
#        279835
#        307963
#        330105
#
# Disc length: 4582 seconds
#
# Revision: 1
# Processed by: cddbd v1.5.2PL0 Copyright (c) Steve Scherf et al.
# Submitted via: ExactAudioCopy v1.0b3
#
DISCID=b711e40e
DTITLE=Various Artist - Time Blues   Vol.16
DYEAR=2003
DGENRE=Blues
TTITLE0=Jimmy McCrackin and Johnny Otis - Taste Of The Clues
TTITLE1=Heavy Blues Chevy - Jawed Away
TTITLE2=Shadows (USA) - Wintertime Blues
TTITLE3=Lee Rocker - Big Blue Train
TTITLE4=Marva Wright - Ain't Nobody's Business 
TTITLE5=Ronnie Earl and The Broad Casters - Baby Doll Blues
TTITLE6=Lucky Peterson - She Spread Her Wings
TTITLE7=U.P. Wilson - Reconsider Baby
TTITLE8=Billy Boy Arnold - Sunny Road
TTITLE9=Backtrack Blues Band - Tropical Depression
TTITLE10=Dana Gillespie - Empty Bed Blues
TTITLE11=Toth Bagi Band - Angel Left Me Today
TTITLE12=Tom Chaffeed and The Saturnalia - The Waltz
TTITLE13=Nick Curran - I'm Waiting For You
EXTD=
EXTT0=
EXTT1=
EXTT2=
EXTT3=
EXTT4=
EXTT5=
EXTT6=
EXTT7=
EXTT8=
EXTT9=
EXTT10=
EXTT11=
EXTT12=
EXTT13=
PLAYORDER=
